# xmcd
#
# Track frame offsets:
#	183
#	13875
#	30500
#	43115
#	52640
#	65003
#	77748
#	90418
#	109303
#	123195
#
# Disc length: 1800 seconds
#
# Revision: 1
# Processed by: cddbd v1.4PL0 Copyright (c) Steve Scherf et al.
# Submitted via: audiograbber 1.82.00
#
DISCID=7607060a
DTITLE=Kenny Rogers - Country Songs
DYEAR=1900
DGENRE=
TTITLE0=Ruby, Don't Take Your Love to Town
TTITLE1=Tulsa Turnaround
TTITLE2=What am I Gonna Do
TTITLE3=Camptown Ladies
TTITLE4=Elvira
TTITLE5=Reuben James
TTITLE6=Love Women
TTITLE7=The King of Oak Street
TTITLE8=Shine on Ruby Tuesday
TTITLE9=Me and Bobby McGee
EXTD=
EXTT0=
EXTT1=
EXTT2=
EXTT3=
EXTT4=
EXTT5=
EXTT6=
EXTT7=
EXTT8=
EXTT9=
PLAYORDER=
